<svg id="Layer_1" data-name="Layer 1" xmlns="http://www.w3.org/2000/svg" viewBox="0 0 32 32"><defs><style>.cls-1{fill:#d88619;}.cls-2{fill:#ffc639;}.cls-3,.cls-4,.cls-6,.cls-7{fill:#fff;}.cls-3,.cls-4,.cls-7{stroke:#000;}.cls-3,.cls-4,.cls-5,.cls-7,.cls-8{stroke-miterlimit:10;}.cls-3{stroke-width:1.16px;}.cls-4{stroke-width:2.48px;}.cls-5,.cls-8{stroke:#fff;stroke-linecap:round;}.cls-5{stroke-width:0.54px;}.cls-7{stroke-width:1.14px;}.cls-8{stroke-width:0.53px;}</style></defs><g id="Lager_2" data-name="Lager 2"><path class="cls-1" d="M28.75,12.35l2.2-2.2-5.3-.4h-.9a16.47,16.47,0,0,0-8.9-2.3,16.61,16.61,0,0,0-8.8,2.2h-.8l-5.2.4,2.3,2.3-1.7.1s1.2,2.1,2.3,4.3a4.65,4.65,0,0,0-.6,2.3c0,3,2.9,5.5,6.5,5.5a6.39,6.39,0,0,0,6.2-3.9,6.3,6.3,0,0,0,6.2,3.9c3.6,0,6.5-2.4,6.5-5.5a5.37,5.37,0,0,0-.5-2.1,40.77,40.77,0,0,1,2.5-4.4Z"/><path class="cls-2" d="M13.83,18.45H18c.3,0,.6.3.4.6l-2.1,4.2c-.2.3-.7.3-.8,0l-2.1-4.2A.47.47,0,0,1,13.83,18.45Z"/><circle class="cls-3" cx="9.05" cy="16.75" r="5.1"/><circle class="cls-4" cx="15.95" cy="14.55" r="1"/><circle class="cls-5" cx="8.95" cy="16.75" r="3.3"/><circle class="cls-6" cx="10.35" cy="14.35" r="1"/><path d="M4.15,13.75s6.5-5.1,9.6,1.5l.6-.3-1.5-5.5a.86.86,0,0,0-.7-.6l-4.8-.3a1,1,0,0,0-.8.5Z"/><ellipse class="cls-7" cx="22.85" cy="16.85" rx="5" ry="5.1"/><ellipse class="cls-8" cx="22.95" cy="16.85" rx="3.2" ry="3.3"/><ellipse class="cls-6" cx="24.65" cy="14.55" rx="0.9" ry="1"/><path d="M27.65,14s-6.3-5.1-9.4,1.5l-.5-.3,1.4-5.5a.86.86,0,0,1,.7-.6l4.7-.3a1,1,0,0,1,.8.5Z"/><circle class="cls-1" cx="15.95" cy="14.55" r="1.05"/></g></svg>