<svg id="Layer_2" data-name="Layer 2" xmlns="http://www.w3.org/2000/svg" viewBox="0 0 26.32 20.63"><defs><style>.cls-1{fill:#bc8020;stroke:#000;stroke-miterlimit:10;stroke-width:0.75px;}.cls-2{fill:#ffc049;}.cls-3{fill:#fff;}.cls-4{fill:#cc7e00;}.cls-5{fill:#ed9c00;}.cls-6{fill:#4b2e00;}</style></defs><path class="cls-1" d="M20,9.13s-1.39.21.27-.44c2.29-.89,4.95,0,7.29-.8.36-.12.8-.26,1.07,0s.08.84-.28,1.07-.79.31-1.14.55-.42.52-.22.72.79-.07,1,.2a.42.42,0,0,1,0,.47,2.3,2.3,0,0,1-.33.38,2.64,2.64,0,0,0-.6,1.61,14.63,14.63,0,0,0,.07,1.75,8,8,0,0,1-.3,3,5.12,5.12,0,0,1-1.62,2.46,6.68,6.68,0,0,1-3.12,1.21,7.81,7.81,0,0,1-3.47-.1A4.14,4.14,0,0,1,16,19.05a4.14,4.14,0,0,1-2.64,2.13,7.81,7.81,0,0,1-3.47.1,6.68,6.68,0,0,1-3.12-1.21,5.12,5.12,0,0,1-1.62-2.46,8,8,0,0,1-.3-3,14.63,14.63,0,0,0,.07-1.75,2.64,2.64,0,0,0-.6-1.61A2.3,2.3,0,0,1,4,10.91a.42.42,0,0,1,0-.47c.23-.27.76.05,1-.2s0-.56-.22-.72S4,9.21,3.66,9s-.59-.78-.28-1.07.71-.13,1.07,0c2.34.76,5-.09,7.29.8,1.66.65,1,.67,1,.67A7.57,7.57,0,0,0,9.26,8.07a1.87,1.87,0,0,1,.89-1,4.69,4.69,0,0,1,1.26-.43,20,20,0,0,1,6.2-.58A12.67,12.67,0,0,1,23.49,8Z" transform="translate(-2.84 -5.69)"/><path d="M16,11.91a10.42,10.42,0,0,0-4.13-3.58C9.63,7.49,7.22,8.18,5,7.64c-.78-.18-2.56-.5-2,1C3.1,9.06,4.53,9.75,4.5,10c0,0-.87.18-.94.61-.11.66.71,1.15.89,1.73.34,1.15-.06,2.46,0,3.64a6.07,6.07,0,0,0,2.11,4.45c2.66,2.09,8,2.16,9.74-1.15h-.64c1.72,3.31,7.08,3.24,9.74,1.15a6.07,6.07,0,0,0,2.11-4.45c.08-1.18-.32-2.49,0-3.64.18-.58,1-1.07.89-1.73-.07-.43-.94-.65-.94-.61,0-.21,1.4-.9,1.56-1.31.54-1.51-1.24-1.19-2-1-2.26.54-4.67-.15-6.88.69A10.42,10.42,0,0,0,16,11.91c-.3.38.23.91.53.53A10.78,10.78,0,0,1,20.1,9.16c1.73-.8,3.7-.46,5.54-.57.32,0,.64-.05,1-.1s.91-.34,1.19-.28c.87.17-.7.91-.86,1a.8.8,0,0,0,.19,1.45c.18.08.38-.12.47.14l-.44.53a3.11,3.11,0,0,0-.43,1.35c-.2,1.86.36,3.59-.46,5.4-1.55,3.37-8.08,4.3-9.94.74a.37.37,0,0,0-.64,0c-1.82,3.48-8.22,2.67-9.85-.58-.9-1.79-.39-3.5-.53-5.38a3.31,3.31,0,0,0-.45-1.53,5.84,5.84,0,0,0-.44-.53c.08-.26.29-.06.47-.14a.76.76,0,0,0,.29-1.34c-.18-.19-1.5-.8-1.1-1.2,0-.05,1.81.39,2.07.42,1.92.15,4-.25,5.76.58a10.78,10.78,0,0,1,3.54,3.28c.3.38.83-.15.53-.53Z" transform="translate(-2.84 -5.69)"/><path class="cls-2" d="M14.23,17.24l1.52,3c.06.12.13.25.26.26s.25-.1.33-.22A7.83,7.83,0,0,0,17.7,17" transform="translate(-2.84 -5.69)"/><path class="cls-2" d="M13.9,17.43,14.71,19l.4.78a5.76,5.76,0,0,0,.39.74.63.63,0,0,0,.76.27,1.31,1.31,0,0,0,.56-.58,8.7,8.7,0,0,0,.74-1.38,7.88,7.88,0,0,0,.5-1.7.38.38,0,0,0-.26-.46.37.37,0,0,0-.46.26,8.14,8.14,0,0,1-.47,1.62A6.94,6.94,0,0,1,16,20a.44.44,0,0,0-.07.08.12.12,0,0,0,.15,0s0,0,0,0A.89.89,0,0,0,16,19.9l-.13-.24-.43-.85-.9-1.76a.37.37,0,0,0-.51-.13.38.38,0,0,0-.14.51Z" transform="translate(-2.84 -5.69)"/><path class="cls-3" d="M13.18,12.62a4.13,4.13,0,0,0-2.86-1.48A2.9,2.9,0,0,0,7.6,12.68a3.76,3.76,0,0,0-.27,1.69,2.89,2.89,0,0,0,.34,1.42A2.47,2.47,0,0,0,9,16.74a6.79,6.79,0,0,0,1.61.28,3.42,3.42,0,0,0,1.91-.18,2.52,2.52,0,0,0,1.08-1.28A3.13,3.13,0,0,0,13.89,14a1.72,1.72,0,0,0-.83-1.34" transform="translate(-2.84 -5.69)"/><path d="M13.45,12.35a4.32,4.32,0,0,0-3.8-1.54A3.12,3.12,0,0,0,7,13.56a4.1,4.1,0,0,0,.31,2.32A2.79,2.79,0,0,0,9,17.14a8.64,8.64,0,0,0,2.42.31,2.5,2.5,0,0,0,1.93-.81c1-1.16,1.52-3.42-.07-4.32a.38.38,0,0,0-.38.65c1.11.63.61,2.25,0,3.06a1.8,1.8,0,0,1-1.47.67,9.17,9.17,0,0,1-1.88-.2,2.37,2.37,0,0,1-1.46-.82,2.85,2.85,0,0,1-.35-1.77,2.41,2.41,0,0,1,1.91-2.33,3.54,3.54,0,0,1,3.31,1.3c.32.36.85-.17.53-.53Z" transform="translate(-2.84 -5.69)"/><path class="cls-3" d="M23.45,11.88A3.46,3.46,0,0,0,21,11a3.22,3.22,0,0,0-2.23.38,2.53,2.53,0,0,0-.83,1.74,3.77,3.77,0,0,0,.29,2,3.48,3.48,0,0,0,2.42,1.75,3.77,3.77,0,0,0,2.73-.44,2.92,2.92,0,0,0,1.38-2.33,2.4,2.4,0,0,0-1.4-2.26" transform="translate(-2.84 -5.69)"/><path d="M23.72,11.62a3.11,3.11,0,0,0-1.93-.88,7.33,7.33,0,0,0-2.29,0c-1.68.31-2.15,2.16-1.93,3.65.5,3.29,5.39,4.13,7.09,1.33a2.87,2.87,0,0,0-1.13-4.11c-.44-.19-.82.46-.38.65a2.09,2.09,0,0,1,1,2.81,3,3,0,0,1-3.08,1.59,3,3,0,0,1-2.67-2c-.32-1-.2-2.8,1-3.17a5.27,5.27,0,0,1,2,0,2.66,2.66,0,0,1,1.76.7c.33.35.86-.18.53-.53Z" transform="translate(-2.84 -5.69)"/><path d="M21.92,13a1.15,1.15,0,0,0-1.46-.37A1.26,1.26,0,0,0,19.82,14a1.48,1.48,0,0,0,1.08,1.13,1.23,1.23,0,0,0,1.46-.49,1.46,1.46,0,0,0,.09-.8,1.28,1.28,0,0,0-.31-.8,1.4,1.4,0,0,0-.72-.33,1.54,1.54,0,0,0-.85,0A1.06,1.06,0,0,0,20,14.06a1.3,1.3,0,0,0,1.38.85.89.89,0,0,0,.69-.67,1.11,1.11,0,0,0-.21-1A.92.92,0,0,0,20.9,13a.85.85,0,0,0-.61.75.38.38,0,0,0,.38.38.38.38,0,0,0,.37-.38c0,.11,0,0,0,0s0,0,0,0v0s0,0,0,0,0,0,0,0-.06,0,0,0h.06c.05,0-.07,0,0,0l.06,0s-.05,0,0,0l.06,0s0,0,0,0l0,0c0,.05,0,0,0,0a.43.43,0,0,1,0,.07s0-.07,0,0l0,.06s0,.06,0,0a.48.48,0,0,1,0,.12c0,.09,0,0,0,0l0,.08a.17.17,0,0,0,0,0s0-.08,0,0l0,.05s.05-.05,0,0,0,0,0,0,0,0,0,0,0,0,0,0h-.08a.27.27,0,0,1-.12,0l-.06,0c.07,0,0,0,0,0l-.11-.06c-.06,0,0,0,0,0l0,0L20.74,14s0,.05,0,0,0,0,0-.05l0-.05s0,0,0,0,0,0,0,0l0-.11c0-.05,0,.08,0,0v-.12s0,.09,0,0a.43.43,0,0,0,0-.05s0-.08,0,0,0,0,0,0l0,0s0,0,0,0l0,0,0,0s-.08,0,0,0l0,0c.08-.05-.06,0,0,0l.06,0s-.09,0,0,0h.19l.15,0a1.55,1.55,0,0,1,.23.06l.06,0c.08,0-.05,0,0,0a.6.6,0,0,1,.11.06c-.08-.09,0,.08,0,0s.05.11,0,0,0,0,0,0a.13.13,0,0,1,0,.06s0,.05,0,.07,0,0,0,0a2.28,2.28,0,0,1,0,.26.49.49,0,0,1,0,.12.13.13,0,0,1,0,.06c0,.07,0,0,0,0s0,.05,0,.07,0,0,0,0,0,.05,0,.05.06-.06,0,0l0,0s.08-.05,0,0l0,0c-.07,0,.07,0,0,0l-.11,0h-.25s-.09,0-.12,0l-.11,0c-.1,0,0,0,0,0l-.06,0-.12-.08c-.05,0,0,0,0,0l-.06-.05-.08-.09s0,.05,0,0l0-.05,0-.06,0,0c0,.05,0,0,0,0s0-.05,0-.07a.13.13,0,0,1,0-.06c0-.08,0,.06,0,0a.65.65,0,0,0,0-.14s0,.09,0,0,0-.05,0-.08l0-.05c0-.06,0,0,0,0l.06-.1s.06-.08,0,0,0,0,0,0l0,0,0,0s0,0,0,0a.29.29,0,0,1,.12-.07s0,0,0,0l.07,0s.05,0,.06,0-.08,0,0,0,.11,0,.12,0-.07,0,0,0l.08,0h0l0,0,0,0c.06,0,0,0,0,0s.1.12,0,0a.37.37,0,0,0,.65-.37Z" transform="translate(-2.84 -5.69)"/><path d="M11.4,13.26a1.16,1.16,0,0,0-1.46-.37,1.28,1.28,0,0,0-.64,1.37,1.48,1.48,0,0,0,1.09,1.13,1.25,1.25,0,0,0,1.46-.48,1.5,1.5,0,0,0,.08-.81,1.23,1.23,0,0,0-.31-.8,1.37,1.37,0,0,0-.71-.33,1.57,1.57,0,0,0-.86,0,1,1,0,0,0-.6,1.31,1.29,1.29,0,0,0,1.37.85.89.89,0,0,0,.69-.67,1.11,1.11,0,0,0-.2-1,.91.91,0,0,0-.92-.31.83.83,0,0,0-.62.74.38.38,0,0,0,.38.38.38.38,0,0,0,.37-.38c0,.11,0,0,0,0s0,0,0,0,.05-.08,0,0,0,0,0,0,0,0,0,0-.07,0,0,0h.06c.05,0-.06,0,0,0h.05s-.05,0,0,0l.07,0s0,0,0,0,0,0,0,0,0,0,0,0a.43.43,0,0,1,0,.07s0-.07,0,0v.06s0,.06,0,0a.45.45,0,0,1,0,.12c0,.09,0,0,0,0l0,.08s0,.05,0,.05.05-.08,0,0l0,.05h0l0,0c.09-.05,0,0,0,0s0,0,0,0h0s-.16,0,0,0l-.13,0,0,0c.06,0,0,0,0,0l-.11-.06c-.07,0,0,0,0,0l0,0-.09-.09s0,.05,0,0l0,0,0-.05,0,0v0a.43.43,0,0,0,0-.11c0-.05,0,.08,0,0v-.07s0,0,0-.05,0,.09,0,0a.07.07,0,0,0,0-.05s0-.08,0,0,0,0,0,0l0,0c0-.05,0,0,0,0l0,0,0,0h0l0,0c.08,0,0,0,0,0s0,0,.06,0h.18l.16,0a1.8,1.8,0,0,1,.22.06l.06,0c.09,0-.05,0,0,0a.6.6,0,0,1,.11.06c-.08-.09.05.08,0,0s.05.11,0,.05,0,0,0,0,0,0,0,.06,0,0,0,.07,0,0,0,0l0,.25v.18c0,.07,0,0,0,0s0,0,0,.07,0,0,0,0l0,0h0l0,0s.08,0,0,0l-.05,0c-.07,0,.07,0,0,0l-.11,0H10.7s-.09,0-.12,0l-.11,0c-.09,0,0,0,0,0l-.06,0-.11-.08c-.06,0,0,0,0,0l0,0-.08-.09s0,0,0,0l0-.05,0-.07,0,0v0a.19.19,0,0,0,0-.07s0,0,0-.06,0,.06,0,0v-.14s0,.09,0,0a.31.31,0,0,0,0-.08s0,0,0-.06,0,0,0,0a.39.39,0,0,1,.06-.11s.05-.08,0,0l0,0,0,0,0,0,0,0a.29.29,0,0,1,.12-.07s0,0,0,0l.06,0s.05,0,.06,0-.08,0,0,0,.1,0,.12,0-.08,0,0,0l.08,0h0l0,0,0,0c.06,0,0-.05,0,0s.1.12,0,0a.39.39,0,0,0,.52.14.37.37,0,0,0,.13-.51Z" transform="translate(-2.84 -5.69)"/><path class="cls-4" d="M11.6,25.27a25.86,25.86,0,0,0-3.54-7l-.48,1.31a30,30,0,0,1-2.69-6.62A4.71,4.71,0,0,0,4.6,17a20.81,20.81,0,0,0,2,3.72c.53.89,1,1.81,1.6,2.66a7.23,7.23,0,0,0,2.19,2.18,1.15,1.15,0,0,0,.66.21.46.46,0,0,0,.43-.48" transform="translate(-2.84 -5.69)"/><path class="cls-5" d="M12.14,25.13A27.16,27.16,0,0,0,8.54,18a.56.56,0,0,0-1,.13l-.48,1.31,1-.13a30.28,30.28,0,0,1-2.64-6.49.56.56,0,0,0-1-.13c-1.83,2.93.35,6,1.82,8.56a17,17,0,0,0,2.77,4,4,4,0,0,0,1.72,1.1,1.08,1.08,0,0,0,1.31-1c.06-.71-1-.7-1.12,0,0-.14-.51-.37-.6-.44a5.26,5.26,0,0,1-.67-.58A9,9,0,0,1,8.53,22.9c-.69-1-1.27-2.17-1.92-3.23C5.46,17.79,4,15.35,5.37,13.2l-1-.13A31.68,31.68,0,0,0,7.1,19.82a.56.56,0,0,0,1-.13l.48-1.31-1,.13a26.26,26.26,0,0,1,3.49,6.91c.22.68,1.29.39,1.07-.29Z" transform="translate(-2.84 -5.69)"/><path class="cls-4" d="M20.66,25.27a26.15,26.15,0,0,1,3.54-7l.48,1.31a30,30,0,0,0,2.7-6.62A4.68,4.68,0,0,1,27.66,17a20.19,20.19,0,0,1-2,3.72c-.53.89-1,1.81-1.59,2.66a7.23,7.23,0,0,1-2.19,2.18,1.18,1.18,0,0,1-.67.21.46.46,0,0,1-.43-.48" transform="translate(-2.84 -5.69)"/><path class="cls-5" d="M21.2,25.42a26.23,26.23,0,0,1,3.48-6.91l-1-.13.48,1.31a.56.56,0,0,0,1,.13,31.17,31.17,0,0,0,2.75-6.75l-1,.13c1.34,2.15-.1,4.59-1.25,6.47-.65,1.06-1.23,2.18-1.92,3.23a9,9,0,0,1-1.1,1.36,4.73,4.73,0,0,1-.68.58c-.09.07-.61.3-.6.44-.06-.7-1.18-.71-1.11,0a1.06,1.06,0,0,0,1.23,1,3.58,3.58,0,0,0,1.72-1A16.21,16.21,0,0,0,26,21.2c1.47-2.53,3.66-5.63,1.83-8.56a.57.57,0,0,0-1,.13,30.28,30.28,0,0,1-2.64,6.49l1,.13-.48-1.31a.57.57,0,0,0-1-.13,27.13,27.13,0,0,0-3.59,7.18c-.23.68.84,1,1.07.29Z" transform="translate(-2.84 -5.69)"/><path class="cls-6" d="M25,10.33a4.78,4.78,0,0,0-3-1.35,10.76,10.76,0,0,0-3.49-.06c-2.6.49-3.34,3.34-3,5.64.77,5,8.26,6.31,10.86,2a4.44,4.44,0,0,0-1.75-6.35.78.78,0,0,0-1,.27.76.76,0,0,0,.27,1,2.91,2.91,0,0,1,1.42,3.9A4.23,4.23,0,0,1,21,17.68a4.33,4.33,0,0,1-3.77-2.77c-.44-1.43-.32-3.95,1.41-4.46a7.59,7.59,0,0,1,2.89,0,3.68,3.68,0,0,1,2.46,1c.66.71,1.72-.35,1.06-1.06Z" transform="translate(-2.84 -5.69)"/><path class="cls-6" d="M14.56,10.42a4.77,4.77,0,0,0-3-1.34A10.76,10.76,0,0,0,8.12,9c-2.6.49-3.34,3.35-3,5.65.77,5.05,8.26,6.3,10.86,2a4.44,4.44,0,0,0-1.75-6.35.76.76,0,0,0-1,.27.75.75,0,0,0,.27,1,2.92,2.92,0,0,1,1.42,3.91,4.24,4.24,0,0,1-4.4,2.25A4.32,4.32,0,0,1,6.74,15c-.44-1.42-.32-3.94,1.41-4.45a7.59,7.59,0,0,1,2.89,0,3.72,3.72,0,0,1,2.46,1c.66.71,1.72-.35,1.06-1.06Z" transform="translate(-2.84 -5.69)"/></svg>