<svg id="Layer_1" data-name="Layer 1" xmlns="http://www.w3.org/2000/svg" viewBox="0 0 108.67 22.2"><defs><style>.cls-1{fill:#fff;}</style></defs><path class="cls-1" d="M47.18,121.15v17.33h-2l-9.44-13.6h-.17v13.6h-2.1V121.15h2L45,134.79h.17V121.15Z" transform="translate(-33.44 -121.15)"/><path class="cls-1" d="M56.39,138.75a5.76,5.76,0,0,1-3.09-.83,5.63,5.63,0,0,1-2.06-2.35,7.93,7.93,0,0,1-.74-3.52,8,8,0,0,1,.74-3.54,5.66,5.66,0,0,1,2.06-2.36,5.76,5.76,0,0,1,3.09-.83,5.46,5.46,0,0,1,5.15,3.19,8,8,0,0,1,.74,3.54,7.93,7.93,0,0,1-.74,3.52,5.48,5.48,0,0,1-5.15,3.18Zm0-1.79a3.42,3.42,0,0,0,2.2-.69,4,4,0,0,0,1.28-1.8,7,7,0,0,0,.41-2.42,7.12,7.12,0,0,0-.41-2.43,4.22,4.22,0,0,0-1.28-1.82,3.85,3.85,0,0,0-4.4,0,4.13,4.13,0,0,0-1.28,1.82,7.12,7.12,0,0,0-.41,2.43,7,7,0,0,0,.41,2.42,4,4,0,0,0,1.28,1.8A3.41,3.41,0,0,0,56.39,137Z" transform="translate(-33.44 -121.15)"/><path class="cls-1" d="M72,143.35V125.49H74v2.06h.24c.15-.23.35-.51.61-.87a3.52,3.52,0,0,1,1.14-.94,4.06,4.06,0,0,1,2-.42,5.12,5.12,0,0,1,2.89.82,5.32,5.32,0,0,1,2,2.32,9.31,9.31,0,0,1,0,7.13,5.43,5.43,0,0,1-1.94,2.34,5.08,5.08,0,0,1-2.87.82,4.1,4.1,0,0,1-2-.42,3.53,3.53,0,0,1-1.16-1q-.41-.54-.63-.9H74v6.87ZM74,132a7.2,7.2,0,0,0,.43,2.6,4,4,0,0,0,1.26,1.75,3.59,3.59,0,0,0,4.12,0,3.94,3.94,0,0,0,1.27-1.79,7.54,7.54,0,0,0,0-5,3.87,3.87,0,0,0-1.26-1.75,3.75,3.75,0,0,0-4.16,0,3.75,3.75,0,0,0-1.25,1.71A7.1,7.1,0,0,0,74,132Z" transform="translate(-33.44 -121.15)"/><path class="cls-1" d="M91.82,138.75a5.48,5.48,0,0,1-5.15-3.18,7.93,7.93,0,0,1-.74-3.52,8,8,0,0,1,.74-3.54,5.88,5.88,0,0,1,8.24-2.36A5.66,5.66,0,0,1,97,128.51a8,8,0,0,1,.74,3.54,7.93,7.93,0,0,1-.74,3.52,5.63,5.63,0,0,1-2.06,2.35A5.74,5.74,0,0,1,91.82,138.75Zm0-1.79a3.41,3.41,0,0,0,2.2-.69,4,4,0,0,0,1.28-1.8,6.8,6.8,0,0,0,.41-2.42,6.89,6.89,0,0,0-.41-2.43A4.13,4.13,0,0,0,94,127.8a3.85,3.85,0,0,0-4.4,0,4.12,4.12,0,0,0-1.27,1.82,6.89,6.89,0,0,0-.42,2.43,6.8,6.8,0,0,0,.42,2.42,4,4,0,0,0,1.27,1.8A3.42,3.42,0,0,0,91.82,137Z" transform="translate(-33.44 -121.15)"/><path class="cls-1" d="M110,128.4l-1.79.5a3.2,3.2,0,0,0-.5-.87,2.42,2.42,0,0,0-.88-.71,3.14,3.14,0,0,0-1.43-.28,3.33,3.33,0,0,0-2,.55,1.62,1.62,0,0,0-.8,1.38,1.44,1.44,0,0,0,.55,1.18,4.75,4.75,0,0,0,1.69.72l1.93.47a5.25,5.25,0,0,1,2.59,1.29,3,3,0,0,1,.86,2.23,3.31,3.31,0,0,1-.64,2,4.3,4.3,0,0,1-1.78,1.38,6.47,6.47,0,0,1-2.66.51,5.9,5.9,0,0,1-3.29-.86,3.84,3.84,0,0,1-1.65-2.52l1.9-.48a2.62,2.62,0,0,0,1,1.58,3.39,3.39,0,0,0,2,.52,3.77,3.77,0,0,0,2.22-.59,1.74,1.74,0,0,0,.82-1.44,1.52,1.52,0,0,0-.47-1.14,3.16,3.16,0,0,0-1.45-.69l-2.17-.5a5.17,5.17,0,0,1-2.62-1.32,3.39,3.39,0,0,1-.21-4.18,4.07,4.07,0,0,1,1.7-1.33,6,6,0,0,1,2.45-.48,4.87,4.87,0,0,1,3,.84A4.57,4.57,0,0,1,110,128.4Z" transform="translate(-33.44 -121.15)"/><path class="cls-1" d="M118.86,125.49v1.69h-6.73v-1.69Zm-4.77-3.12h2v12.39a2.48,2.48,0,0,0,.25,1.26,1.19,1.19,0,0,0,.64.56,2.54,2.54,0,0,0,.83.14,2.88,2.88,0,0,0,.55,0l.33-.06.41,1.79a3.87,3.87,0,0,1-.57.16,4.62,4.62,0,0,1-.92.08,4,4,0,0,1-1.65-.36,3.36,3.36,0,0,1-1.34-1.11,3.19,3.19,0,0,1-.53-1.88Z" transform="translate(-33.44 -121.15)"/><path class="cls-1" d="M127.19,138.75a6.15,6.15,0,0,1-3.24-.83,5.59,5.59,0,0,1-2.09-2.34,8,8,0,0,1-.73-3.5,8.17,8.17,0,0,1,.73-3.52,5.78,5.78,0,0,1,2-2.39,5.52,5.52,0,0,1,3.08-.85,6.3,6.3,0,0,1,2,.33,5.12,5.12,0,0,1,1.8,1.1,5.26,5.26,0,0,1,1.3,2,8.55,8.55,0,0,1,.48,3.06v.85h-10v-1.73h8a4.31,4.31,0,0,0-.44-2,3.37,3.37,0,0,0-1.23-1.36,3.49,3.49,0,0,0-1.88-.5,3.57,3.57,0,0,0-2.06.59,3.93,3.93,0,0,0-1.34,1.52,4.5,4.5,0,0,0-.46,2v1.15a5.53,5.53,0,0,0,.51,2.49,3.59,3.59,0,0,0,1.43,1.55,4.14,4.14,0,0,0,2.12.53,4.33,4.33,0,0,0,1.43-.23,2.9,2.9,0,0,0,1.82-1.8l1.93.54a4.33,4.33,0,0,1-1,1.72,4.93,4.93,0,0,1-1.77,1.15A6.43,6.43,0,0,1,127.19,138.75Z" transform="translate(-33.44 -121.15)"/><path class="cls-1" d="M135.62,138.48v-13h1.92v2h.14a3.17,3.17,0,0,1,1.29-1.57,3.78,3.78,0,0,1,2.09-.6h.55a4.92,4.92,0,0,1,.5,0v2a3.18,3.18,0,0,0-.46-.08,4.56,4.56,0,0,0-.75-.06,3.54,3.54,0,0,0-1.69.39,3,3,0,0,0-1.17,1.09,2.87,2.87,0,0,0-.43,1.57v8.22Z" transform="translate(-33.44 -121.15)"/></svg>