<svg id="Layer_1" data-name="Layer 1" xmlns="http://www.w3.org/2000/svg" viewBox="0 0 17.38 17.38"><defs><style>.cls-1{fill:none;}.cls-2{fill:#fff;}</style></defs><rect class="cls-1" width="17.38" height="17.38"/><path class="cls-2" d="M26.3,28h2.4a.22.22,0,0,1,.2.2v2.4a.22.22,0,0,1-.2.2H26.3a.22.22,0,0,1-.2-.2V28.2A.22.22,0,0,1,26.3,28Z" transform="translate(-22.8 -22.81)"/><path class="cls-2" d="M34.3,28h2.4a.22.22,0,0,1,.2.2v2.4a.22.22,0,0,1-.2.2H34.3a.22.22,0,0,1-.2-.2V28.2A.22.22,0,0,1,34.3,28Z" transform="translate(-22.8 -22.81)"/><path class="cls-2" d="M36.74,35H26.34a.27.27,0,0,1-.3-.3V33.4a.27.27,0,0,1,.3-.3h10.3a.27.27,0,0,1,.3.3v1.3C37,34.9,36.84,35,36.74,35Z" transform="translate(-22.8 -22.81)"/></svg>