<svg id="Layer_1" data-name="Layer 1" xmlns="http://www.w3.org/2000/svg" viewBox="0 0 174 35"><defs><style>.cls-1{fill:#fff;}.cls-2{fill:none;}</style></defs><path class="cls-1" d="M40.18,121.15v17.33h-2l-9.44-13.6h-.17v13.6h-2.1V121.15h2l9.47,13.64h.17V121.15Z" transform="translate(0 -113)"/><path class="cls-1" d="M49.38,138.75a5.48,5.48,0,0,1-5.15-3.18,7.93,7.93,0,0,1-.74-3.52,8,8,0,0,1,.74-3.54,5.88,5.88,0,0,1,8.24-2.36,5.66,5.66,0,0,1,2.06,2.36,7.89,7.89,0,0,1,.74,3.54,7.8,7.8,0,0,1-.74,3.52,5.63,5.63,0,0,1-2.06,2.35A5.74,5.74,0,0,1,49.38,138.75Zm0-1.79a3.41,3.41,0,0,0,2.2-.69,4,4,0,0,0,1.28-1.8,6.8,6.8,0,0,0,.42-2.42,6.89,6.89,0,0,0-.42-2.43,4.13,4.13,0,0,0-1.28-1.82,3.85,3.85,0,0,0-4.4,0,4.12,4.12,0,0,0-1.27,1.82,6.89,6.89,0,0,0-.42,2.43,6.8,6.8,0,0,0,.42,2.42,4,4,0,0,0,1.27,1.8A3.42,3.42,0,0,0,49.38,137Z" transform="translate(0 -113)"/><path class="cls-1" d="M70.3,138.75a5.43,5.43,0,0,1-5.18-3.24,8.1,8.1,0,0,1-.71-3.46,7.94,7.94,0,0,1,.73-3.5,5.72,5.72,0,0,1,2-2.37,5.44,5.44,0,0,1,3.07-.86,6,6,0,0,1,2.48.5,4.79,4.79,0,0,1,1.8,1.43,4.35,4.35,0,0,1,.87,2.13h-2a3.14,3.14,0,0,0-1-1.58,3.06,3.06,0,0,0-2.1-.69,3.5,3.5,0,0,0-2,.6,4,4,0,0,0-1.37,1.71,6.32,6.32,0,0,0-.48,2.56,6.82,6.82,0,0,0,.47,2.63,4,4,0,0,0,1.36,1.73,3.49,3.49,0,0,0,2.06.62,3.55,3.55,0,0,0,1.41-.27,3,3,0,0,0,1.08-.78,2.94,2.94,0,0,0,.62-1.22h2a4.6,4.6,0,0,1-.83,2.07,4.65,4.65,0,0,1-1.76,1.45A5.57,5.57,0,0,1,70.3,138.75Z" transform="translate(0 -113)"/><path class="cls-1" d="M83.6,138.75a5.76,5.76,0,0,1-3.09-.83,5.63,5.63,0,0,1-2.06-2.35,7.93,7.93,0,0,1-.74-3.52,8,8,0,0,1,.74-3.54,5.66,5.66,0,0,1,2.06-2.36,5.76,5.76,0,0,1,3.09-.83,5.46,5.46,0,0,1,5.15,3.19,8,8,0,0,1,.74,3.54,7.93,7.93,0,0,1-.74,3.52,5.48,5.48,0,0,1-5.15,3.18Zm0-1.79a3.42,3.42,0,0,0,2.2-.69,4,4,0,0,0,1.28-1.8,7,7,0,0,0,.41-2.42,7.12,7.12,0,0,0-.41-2.43,4.22,4.22,0,0,0-1.28-1.82,3.85,3.85,0,0,0-4.4,0,4.13,4.13,0,0,0-1.28,1.82,7.12,7.12,0,0,0-.41,2.43,7,7,0,0,0,.41,2.42,4,4,0,0,0,1.28,1.8A3.41,3.41,0,0,0,83.6,137Z" transform="translate(0 -113)"/><path class="cls-1" d="M94.53,130.66v7.82h-2v-13h1.93v2h.17a3.78,3.78,0,0,1,1.39-1.6,4.36,4.36,0,0,1,2.4-.6,4.86,4.86,0,0,1,2.31.53,3.69,3.69,0,0,1,1.54,1.63,6,6,0,0,1,.55,2.74v8.26h-2v-8.12A3.38,3.38,0,0,0,100,128a2.84,2.84,0,0,0-2.18-.86,3.54,3.54,0,0,0-1.71.41A3,3,0,0,0,95,128.73,4,4,0,0,0,94.53,130.66Z" transform="translate(0 -113)"/><path class="cls-1" d="M112.13,125.49v1.69h-6.74v-1.69Zm-4.77-3.12h2v12.39a2.59,2.59,0,0,0,.25,1.26,1.21,1.21,0,0,0,.65.56,2.54,2.54,0,0,0,.83.14,2.7,2.7,0,0,0,.54,0l.34-.06.4,1.79a3.68,3.68,0,0,1-.56.16,4.62,4.62,0,0,1-.92.08,4,4,0,0,1-1.66-.36,3.42,3.42,0,0,1-1.34-1.11,3.18,3.18,0,0,1-.52-1.88Z" transform="translate(0 -113)"/><path class="cls-1" d="M120.45,138.75a6.09,6.09,0,0,1-3.23-.83,5.52,5.52,0,0,1-2.09-2.34,7.84,7.84,0,0,1-.73-3.5,8,8,0,0,1,.73-3.52,5.69,5.69,0,0,1,2.05-2.38,5.41,5.41,0,0,1,3.07-.86,6.32,6.32,0,0,1,2,.33,5.12,5.12,0,0,1,1.8,1.1,5.32,5.32,0,0,1,1.29,2,8.55,8.55,0,0,1,.48,3.06v.85h-10v-1.73h8a4.31,4.31,0,0,0-.43-2,3.32,3.32,0,0,0-1.24-1.36,3.49,3.49,0,0,0-1.88-.5,3.61,3.61,0,0,0-2.06.59,3.86,3.86,0,0,0-1.33,1.53,4.44,4.44,0,0,0-.47,2v1.15a5.53,5.53,0,0,0,.51,2.49,3.65,3.65,0,0,0,1.43,1.55,4.2,4.2,0,0,0,2.12.53,4.29,4.29,0,0,0,1.43-.23,2.94,2.94,0,0,0,1.1-.67,3,3,0,0,0,.72-1.13l1.93.54a4.19,4.19,0,0,1-1,1.72,4.89,4.89,0,0,1-1.78,1.15A6.39,6.39,0,0,1,120.45,138.75Z" transform="translate(0 -113)"/><path class="cls-1" d="M130.88,130.66v7.82h-2v-13h1.93v2H131a3.71,3.71,0,0,1,1.39-1.6,4.36,4.36,0,0,1,2.4-.6,4.86,4.86,0,0,1,2.31.53,3.69,3.69,0,0,1,1.54,1.63,6,6,0,0,1,.55,2.74v8.26h-2v-8.12a3.38,3.38,0,0,0-.79-2.39,2.85,2.85,0,0,0-2.19-.86,3.53,3.53,0,0,0-1.7.41,3,3,0,0,0-1.18,1.21A4,4,0,0,0,130.88,130.66Z" transform="translate(0 -113)"/><path class="cls-1" d="M148.48,125.49v1.69h-6.74v-1.69Zm-4.78-3.12h2v12.39A2.48,2.48,0,0,0,146,136a1.23,1.23,0,0,0,.64.56,2.6,2.6,0,0,0,.84.14,2.7,2.7,0,0,0,.54,0l.34-.06.4,1.79a3.68,3.68,0,0,1-.56.16,4.73,4.73,0,0,1-.93.08,4,4,0,0,1-1.65-.36,3.36,3.36,0,0,1-1.34-1.11,3.19,3.19,0,0,1-.53-1.88Z" transform="translate(0 -113)"/><rect class="cls-2" width="174" height="35"/></svg>